HIERARCHY
ROOT Hips
{
    OFFSET   0.000000   0.000000   0.000000
    CHANNELS 6 Xposition Yposition Zposition Zrotation Xrotation Yrotation
    JOINT Chest
    {
        OFFSET   0.000000   8.007230   0.000000
        CHANNELS 3 Zrotation Xrotation Yrotation
        JOINT Chest2
        {
            OFFSET   0.000000  22.077100   0.000000
            CHANNELS 3 Zrotation Xrotation Yrotation
            JOINT Neck
            {
                OFFSET   0.000000  23.254800   0.000000
                CHANNELS 3 Zrotation Xrotation Yrotation
                JOINT Head
                {
                    OFFSET   0.000010  14.370000   1.956600
                    CHANNELS 3 Zrotation Xrotation Yrotation
                    End Site
                    {
                        OFFSET   0.000000  19.566000   0.000000
                    }
                }
            }
            JOINT LeftCollar
            {
                OFFSET   3.911900  19.017000  -0.467062
                CHANNELS 3 Zrotation Xrotation Yrotation
                JOINT LeftShoulder
                {
                    OFFSET  10.383700   0.000000   0.000000
                    CHANNELS 3 Zrotation Xrotation Yrotation
                    JOINT LeftElbow
                    {
                        OFFSET  26.662100   0.001193   0.000835
                        CHANNELS 3 Zrotation Xrotation Yrotation
                        JOINT LeftWrist
                        {
                            OFFSET  28.869000  -0.000058  -0.000075
                            CHANNELS 3 Zrotation Xrotation Yrotation
                            JOINT LeftFinger0
                            {
                                OFFSET   2.044660  -2.323460   3.252850
                                CHANNELS 3 Zrotation Xrotation Yrotation
                                JOINT LeftFinger01
                                {
                                    OFFSET   3.088130   0.000000   0.000000
                                    CHANNELS 3 Zrotation Xrotation Yrotation
                                    JOINT LeftFinger02
                                    {
                                        OFFSET   2.639450   0.000000   0.000000
                                        CHANNELS 3 Zrotation Xrotation Yrotation
                                        End Site
                                        {
                                            OFFSET   2.582190   0.000000   0.000000
                                        }
                                    }
                                }
                            }
                            JOINT LeftFinger1
                            {
                                OFFSET   8.364480   0.000000   3.252850
                                CHANNELS 3 Zrotation Xrotation Yrotation
                                JOINT LeftFinger11
                                {
                                    OFFSET   4.646920   0.000000   0.000000
                                    CHANNELS 3 Zrotation Xrotation Yrotation
                                    JOINT LeftFinger12
                                    {
                                        OFFSET   2.323460   0.000000   0.000000
                                        CHANNELS 3 Zrotation Xrotation Yrotation
                                        End Site
                                        {
                                            OFFSET   2.273050   0.000000   0.000000
                                        }
                                    }
                                }
                            }
                            JOINT LeftFinger2
                            {
                                OFFSET   8.364490   0.000016   1.078090
                                CHANNELS 3 Zrotation Xrotation Yrotation
                                JOINT LeftFinger21
                                {
                                    OFFSET   5.111620   0.000000   0.000000
                                    CHANNELS 3 Zrotation Xrotation Yrotation
                                    JOINT LeftFinger22
                                    {
                                        OFFSET   2.788150   0.000012   0.000000
                                        CHANNELS 3 Zrotation Xrotation Yrotation
                                        End Site
                                        {
                                            OFFSET   2.727660   0.000000   0.000000
                                        }
                                    }
                                }
                            }
                            JOINT LeftFinger3
                            {
                                OFFSET   7.899780   0.000014  -1.078090
                                CHANNELS 3 Zrotation Xrotation Yrotation
                                JOINT LeftFinger31
                                {
                                    OFFSET   4.646930   0.000000   0.000000
                                    CHANNELS 3 Zrotation Xrotation Yrotation
                                    JOINT LeftFinger32
                                    {
                                        OFFSET   2.323470   0.000000   0.000000
                                        CHANNELS 3 Zrotation Xrotation Yrotation
                                        End Site
                                        {
                                            OFFSET   2.273050   0.000000   0.000000
                                        }
                                    }
                                }
                            }
                            JOINT LeftFinger4
                            {
                                OFFSET   7.435090   0.000000  -3.252850
                                CHANNELS 3 Zrotation Xrotation Yrotation
                                JOINT LeftFinger41
                                {
                                    OFFSET   3.717550   0.000000   0.000000
                                    CHANNELS 3 Zrotation Xrotation Yrotation
                                    JOINT LeftFinger42
                                    {
                                        OFFSET   1.858770   0.000000   0.000000
                                        CHANNELS 3 Zrotation Xrotation Yrotation
                                        End Site
                                        {
                                            OFFSET   1.818440   0.000000   0.000000
                                        }
                                    }
                                }
                            }
                        }
                    }
                }
            }
            JOINT RightCollar
            {
                OFFSET  -3.911900  19.017000  -0.467063
                CHANNELS 3 Zrotation Xrotation Yrotation
                JOINT RightShoulder
                {
                    OFFSET -10.383700   0.000023   0.000000
                    CHANNELS 3 Zrotation Xrotation Yrotation
                    JOINT RightElbow
                    {
                        OFFSET -26.662100   0.001246   0.001011
                        CHANNELS 3 Zrotation Xrotation Yrotation
                        JOINT RightWrist
                        {
                            OFFSET -28.869000  -0.000026  -0.000078
                            CHANNELS 3 Zrotation Xrotation Yrotation
                            JOINT RightFinger0
                            {
                                OFFSET  -2.044660  -2.323490   3.252850
                                CHANNELS 3 Zrotation Xrotation Yrotation
                                JOINT RightFinger01
                                {
                                    OFFSET  -3.088130   0.000000   0.000000
                                    CHANNELS 3 Zrotation Xrotation Yrotation
                                    JOINT RightFinger02
                                    {
                                        OFFSET  -2.639460   0.000000   0.000000
                                        CHANNELS 3 Zrotation Xrotation Yrotation
                                        End Site
                                        {
                                            OFFSET  -2.582190   0.000000   0.000000
                                        }
                                    }
                                }
                            }
                            JOINT RightFinger1
                            {
                                OFFSET  -8.364480   0.000000   3.252850
                                CHANNELS 3 Zrotation Xrotation Yrotation
                                JOINT RightFinger11
                                {
                                    OFFSET  -4.646920   0.000000   0.000000
                                    CHANNELS 3 Zrotation Xrotation Yrotation
                                    JOINT RightFinger12
                                    {
                                        OFFSET  -2.323470   0.000000   0.000000
                                        CHANNELS 3 Zrotation Xrotation Yrotation
                                        End Site
                                        {
                                            OFFSET  -2.273050   0.000000   0.000000
                                        }
                                    }
                                }
                            }
                            JOINT RightFinger2
                            {
                                OFFSET  -8.364480   0.000000   1.078090
                                CHANNELS 3 Zrotation Xrotation Yrotation
                                JOINT RightFinger21
                                {
                                    OFFSET  -5.111620   0.000000   0.000000
                                    CHANNELS 3 Zrotation Xrotation Yrotation
                                    JOINT RightFinger22
                                    {
                                        OFFSET  -2.788160   0.000000   0.000000
                                        CHANNELS 3 Zrotation Xrotation Yrotation
                                        End Site
                                        {
                                            OFFSET  -2.727660   0.000000   0.000000
                                        }
                                    }
                                }
                            }
                            JOINT RightFinger3
                            {
                                OFFSET  -7.899780   0.000000  -1.078090
                                CHANNELS 3 Zrotation Xrotation Yrotation
                                JOINT RightFinger31
                                {
                                    OFFSET  -4.646930   0.000000   0.000000
                                    CHANNELS 3 Zrotation Xrotation Yrotation
                                    JOINT RightFinger32
                                    {
                                        OFFSET  -2.323470   0.000000   0.000000
                                        CHANNELS 3 Zrotation Xrotation Yrotation
                                        End Site
                                        {
                                            OFFSET  -2.273050   0.000000   0.000000
                                        }
                                    }
                                }
                            }
                            JOINT RightFinger4
                            {
                                OFFSET  -7.435090   0.000000  -3.252850
                                CHANNELS 3 Zrotation Xrotation Yrotation
                                JOINT RightFinger41
                                {
                                    OFFSET  -3.717550   0.000000   0.000000
                                    CHANNELS 3 Zrotation Xrotation Yrotation
                                    JOINT RightFinger42
                                    {
                                        OFFSET  -1.858760   0.000000   0.000000
                                        CHANNELS 3 Zrotation Xrotation Yrotation
                                        End Site
                                        {
                                            OFFSET  -1.818440   0.000000   0.000000
                                        }
                                    }
                                }
                            }
                        }
                    }
                }
            }
        }
    }
    JOINT LeftHip
    {
        OFFSET   9.783010   0.000000   0.000000
        CHANNELS 3 Zrotation Xrotation Yrotation
        JOINT LeftKnee
        {
            OFFSET   0.000073 -41.789100   0.001749
            CHANNELS 3 Zrotation Xrotation Yrotation
            JOINT LeftAnkle
            {
                OFFSET   0.000111 -41.133200  -0.000179
                CHANNELS 3 Zrotation Xrotation Yrotation
                JOINT LeftToe
                {
                    OFFSET   0.000000  -6.358960  14.674500
                    CHANNELS 3 Zrotation Xrotation Yrotation
                    End Site
                    {
                        OFFSET   0.000000   0.000000   3.913200
                    }
                }
            }
        }
    }
    JOINT RightHip
    {
        OFFSET  -9.783010   0.000000   0.000000
        CHANNELS 3 Zrotation Xrotation Yrotation
        JOINT RightKnee
        {
            OFFSET   0.000424 -41.789200   0.005205
            CHANNELS 3 Zrotation Xrotation Yrotation
            JOINT RightAnkle
            {
                OFFSET   0.000000 -41.133200  -0.000155
                CHANNELS 3 Zrotation Xrotation Yrotation
                JOINT RightToe
                {
                    OFFSET   0.000000  -6.358960  14.674500
                    CHANNELS 3 Zrotation Xrotation Yrotation
                    End Site
                    {
                        OFFSET   0.000000   0.000000   3.913200
                    }
                }
            }
        }
    }
}
MOTION
Frames: 5
Frame Time:   0.016667
 -1.595580  89.825600  -2.510550  -1.288140  -5.624900  -0.386829   0.171701   4.590540  -0.358838   0.374164   9.179880  -0.735087   0.474671  -1.909290   0.019634   0.782192  -3.867980   4.710690  -6.726480  -2.383500   4.894540 -67.890000  21.252800  -0.976691  -3.134750  -7.392230 -16.931000  12.076000 -13.763300   6.624100  50.111400  45.473300 -79.924100 -30.258500   0.010364   0.007120 -10.129300   0.004521   0.004353 -39.755400   3.237080  -3.883330 -32.617100  -0.002402  -0.005371 -22.875700  -0.004235  -0.008538 -31.040500  -3.724320   6.156300 -46.861600  -0.003625  -0.010481 -31.209800  -0.000638  -0.005352 -28.593200  -3.453050   6.309730 -41.285500  -0.005949  -0.009068 -27.496100   0.000935  -0.007219 -39.040600  -4.800470   5.891740 -58.931900   0.000293  -0.005090 -39.248600  -0.003951  -0.002954  10.888100   1.359670  10.991000  62.026100   8.251540  -3.380280   1.644940  -8.322110  11.510400  -8.794420 -26.071300  -5.493660 -40.652200  39.300600  79.166300  29.879700   0.000000  -0.002008   9.939830  -0.006399   0.000320  34.367100   3.688800   5.374330  28.260300  -0.013466   0.001388  19.782200   0.003049   0.001132  28.500400   0.584727   1.076840  36.205300  -0.011834   0.012497  24.118900  -0.000876   0.010914  28.742000  -0.127816  -0.232896  40.501700  -0.000403   0.000704  26.974100  -0.001263   0.009085  36.493400  -2.668000  -3.600510  54.866100  -0.002795   0.000175  36.540800   0.001112   0.003112   2.486320   5.053350   2.278550   0.489430   3.103140  10.567100  -5.330420  -3.948030   3.399180  -0.000000   0.000000  -0.000000   2.244560   4.265320  -8.131710  -1.294230   4.768270 -10.765000  -5.215070  -1.227030   1.404620   0.000000   0.000000  -0.000000
 -1.599370  89.825600  -2.510760  -1.286640  -5.632460  -0.369567   0.171539   4.593060  -0.359913   0.373940   9.184920  -0.737242   0.469515  -1.909320   0.019642   0.773729  -3.867740   4.720230  -6.723060  -2.400810   4.906810 -67.901000  21.275000  -0.967359  -3.132350  -7.305000 -16.924200  12.101400 -13.755200   6.620590  50.213300  45.562400 -80.137600 -30.240800   0.010367   0.007134 -10.120400   0.004528   0.004357 -39.782700   3.273270  -3.923160 -32.640900  -0.002416  -0.005344 -22.897200  -0.004252  -0.008519 -31.064000  -3.724340   6.156410 -46.897300  -0.003622  -0.010466 -31.233600  -0.000653  -0.005339 -28.593200  -3.453140   6.309820 -41.318100  -0.005955  -0.009062 -27.517800   0.000922  -0.007217 -39.061100  -4.772180   5.852070 -58.958700   0.000284  -0.005091 -39.266400  -0.003949  -0.002957  10.892500   1.334760  10.999300  62.024200   8.283560  -3.354960   1.649750  -8.321500  11.487600  -8.788140 -26.023000  -5.482960 -40.658300  39.313100  79.215200  29.870000   0.000000  -0.002024   9.934980  -0.006390   0.000311  34.338200   3.703910   5.402080  28.238000  -0.013461   0.001352  19.766600   0.003042   0.001102  28.500100   0.590535   1.087580  36.206300  -0.011836   0.012514  24.118600  -0.000889   0.010923  28.741900  -0.135661  -0.247214  40.459300  -0.000383   0.000681  26.945900  -0.001280   0.009072  36.477100  -2.653180  -3.582670  54.840300  -0.002788   0.000149  36.523600   0.001095   0.003083   2.486040   5.053960   2.278550   0.490471   3.111500  10.562200  -5.331150  -3.948660   3.390320   0.000000   0.000000   0.000000   2.244240   4.266420  -8.122100  -1.290380   4.786330 -10.774300  -5.215010  -1.241980   1.389340  -0.000000   0.000000  -0.000000
 -1.605390  89.825500  -2.510960  -1.284300  -5.646830  -0.343354   0.171299   4.599050  -0.362751   0.373729   9.196890  -0.742952   0.459989  -1.909350   0.019659   0.757997  -3.867460   4.738520  -6.713390  -2.433600   4.932750 -67.922900  21.305300  -0.951651  -3.137220  -7.145710 -16.914700  12.138700 -13.698100   6.596040  50.350300  45.681900 -80.427200 -30.223100   0.010390   0.007159 -10.111600   0.004547   0.004370 -39.808000   3.323190  -3.978830 -32.664600  -0.002451  -0.005275 -22.918700  -0.004295  -0.008472 -31.087600  -3.724390   6.156580 -46.932900  -0.003614  -0.010429 -31.257300  -0.000690  -0.005307 -28.593300  -3.453280   6.309960 -41.350600  -0.005971  -0.009048 -27.539500   0.000886  -0.007213 -39.083700  -4.732490   5.800190 -58.985400   0.000263  -0.005093 -39.284200  -0.003942  -0.002963  10.900900   1.288110  11.015400  62.020300   8.339180  -3.306370   1.655630  -8.313310  11.464600  -8.794100 -25.942100  -5.470750 -40.671500  39.338600  79.321000  29.802100   0.000000  -0.002054   9.901020  -0.006381   0.000290  34.292100   3.732390   5.452710  28.202800  -0.013451   0.001264  19.742000   0.003023   0.001028  28.499600   0.603984   1.112320  36.213500  -0.011840   0.012554  24.118200  -0.000921   0.010948  28.741600  -0.149528  -0.272514  40.393400  -0.000334   0.000627  26.902000  -0.001324   0.009035  36.448500  -2.627350  -3.551580  54.795100  -0.002772   0.000089  36.493500   0.001055   0.003016   2.485540   5.058200   2.278570   0.491471   3.123260  10.555000  -5.332340  -3.949310   3.374900  -0.000000   0.000000  -0.000000   2.244090   4.271030  -8.108300  -1.284110   4.814560 -10.789300  -5.214920  -1.264830   1.367010  -0.000000   0.000000   0.000000
 -1.610200  89.825500  -2.510940  -1.281790  -5.662100  -0.326603   0.171041   4.608070  -0.367499   0.373549   9.214920  -0.752508   0.450234  -1.909350   0.019677   0.741690  -3.867780   4.759150  -6.696320  -2.469010   4.965550 -67.940400  21.315800  -0.938419  -3.165730  -6.978140 -16.924600  12.139600 -13.475000   6.516700  50.388600  45.719000 -80.514300 -30.223400   0.010455   0.007181 -10.111700   0.004576   0.004396 -39.797200   3.341960  -4.002330 -32.657200  -0.002508  -0.005170 -22.912000  -0.004364  -0.008401 -31.075400  -3.724470   6.156650 -46.914400  -0.003602  -0.010372 -31.245000  -0.000747  -0.005259 -28.593500  -3.453430   6.310010 -41.314900  -0.005994  -0.009027 -27.515700   0.000832  -0.007210 -39.062200  -4.715260   5.785900 -58.950600   0.000229  -0.005099 -39.261100  -0.003933  -0.002972  10.911500   1.239360  11.033700  62.015300   8.384940  -3.255580   1.651590  -8.273920  11.469900  -8.877440 -25.872300  -5.478630 -40.704000  39.333400  79.468400  29.628600   0.000029  -0.002079   9.814270  -0.006402   0.000261  34.253600   3.765430   5.508250  28.173600  -0.013435   0.001128  19.721500   0.002996   0.000919  28.502900   0.625560   1.151840  36.258900  -0.011847   0.012617  24.146400  -0.000971   0.010987  28.741200  -0.162059  -0.295370  40.341600  -0.000259   0.000550  26.867500  -0.001392   0.008974  36.415700  -2.598130  -3.516360  54.743200  -0.002748   0.000001  36.459000   0.000997   0.002917   2.484920   5.070950   2.279190   0.491321   3.127140  10.551100  -5.333110  -3.948850   3.359860  -0.000000   0.000000  -0.000000   2.242930   4.280280  -8.102400  -1.278520   4.833310 -10.800600  -5.219600  -1.278330   1.355770  -0.000000   0.000000   0.000000
 -1.613470  89.825400  -2.510760  -1.278870  -5.679310  -0.315219   0.171089   4.618270  -0.372950   0.374283   9.235280  -0.763526   0.439713  -1.909360   0.019701   0.724141  -3.868750   4.780620  -6.676410  -2.507340   5.003870 -67.977200  21.318200  -0.925715  -3.197070  -6.814560 -16.944800  12.143700 -13.168700   6.428720  50.392600  45.725100 -80.526500 -30.225400   0.010538   0.007210 -10.112700   0.004609   0.004423 -39.788300   3.347000  -4.010000 -32.649800  -0.002580  -0.005040 -22.905200  -0.004447  -0.008314 -31.058700  -3.724560   6.156670 -46.889100  -0.003587  -0.010302 -31.228200  -0.000816  -0.005199 -28.593700  -3.453520   6.310030 -41.278400  -0.006022  -0.009002 -27.491400   0.000763  -0.007206 -39.027400  -4.709420   5.783830 -58.897900   0.000188  -0.005106 -39.226000  -0.003921  -0.002984  10.924500   1.185730  11.053200  62.009200   8.440300  -3.194040   1.641630  -8.211440  11.484400  -9.011750 -25.810100  -5.486850 -40.734500  39.298400  79.662000  29.397200   0.000079  -0.002114   9.698560  -0.006440   0.000224  34.230100   3.795780   5.557450  28.157300  -0.013418   0.000969  19.710100   0.002962   0.000790  28.510000   0.645855   1.188880  36.342100  -0.011858   0.012693  24.203800  -0.001035   0.011035  28.740800  -0.175986  -0.320761  40.313300  -0.000171   0.000459  26.848600  -0.001477   0.008900  36.395100  -2.579910  -3.494410  54.710800  -0.002720  -0.000101  36.437400   0.000928   0.002797   2.484140   5.088210   2.279830   0.491090   3.130370  10.549400  -5.333640  -3.948390   3.346740  -0.000000   0.000000   0.000000   2.240020   4.293440  -8.098200  -1.271610   4.849640 -10.810100  -5.227110  -1.290140   1.348290  -0.000000   0.000000   0.000000
